# xmcd
#
# Track frame offsets: 
#        150
#        3599
#        32381
#        50037
#        88672
#        123040
#        180502
#        208223
#        255159
#
# Disc length: 3772 seconds
#
# Revision: 0
# Processed by: cddbd v1.5.1PL0 Copyright (c) Steve Scherf et al.
# Submitted via: ExactAudioCopy v0.95a5
#
DISCID=6a0eba09
DTITLE=John Mayall - 70th Birthday Concert (custom disc 1)
DYEAR=2003
DGENRE=Blues
TTITLE0=Intro
TTITLE1=Southside Story
TTITLE2=Kids Got the Blues
TTITLE3=Dirty Water
TTITLE4=Somebody's Acting Like a Child
TTITLE5=Blues for the Lost Days
TTITLE6=Walking on Sunset
TTITLE7=Oh, Pretty Woman
TTITLE8=No Big Hurry
EXTD=
EXTT0=
EXTT1=
EXTT2=
EXTT3=
EXTT4=
EXTT5=
EXTT6=
EXTT7=
EXTT8=
PLAYORDER=
